<!--?xml version="1.0" encoding="utf-8"?-->
<!-- Generator: Adobe Illustrator 18.1.1, SVG Export Plug-In . SVG Version: 6.00 Build 0)  -->

<svg version="1.1" id="_x32_" xmlns="http://www.w3.org/2000/svg" xmlns:xlink="http://www.w3.org/1999/xlink" x="0px" y="0px" viewBox="0 0 512 512" style="width: 256px; height: 256px; opacity: 1;" xml:space="preserve">
<style type="text/css">
	.st0{fill:#432818;}
</style>
<g>
	<path class="st0" d="M499.244,159.986c1.768,2.251,3.377,4.276-0.27-0.388c-3.246-4.086-1.923-2.39-0.278-0.299
		c-14.108-17.55-36.731-24.809-56.898-33.792c-26.475-11.797-52.95-23.595-79.426-35.393c-26.461-11.805-52.954-23.603-79.415-35.4
		c-21.841-9.729-42.132-19.027-66.327-21.176c-46.504-4.129-96.545,7.617-138.049,27.711C43.379,78.286,15.413,103.461,2.358,140.66
		c-5.76,16.409-0.424,36.379,10.117,42.271c8.011,4.466,18.493-0.175,19.999,12.309c0.307,2.529,0.044,5.132,0,7.682
		c-0.438,18.53-2.003,162.016-0.76,174.538c1.126,11.476,6.549,15.613,16.87,18.983c7.748,2.529,195.384,84.718,204.726,82.81
		c36.621-7.485,160.58-32.813,185.916-37.996c7.924-1.615,18.084-2.076,23.273-8.91c4.562-5.95,4.02-12.909,4.196-19.838
		c0.936-40.298,1.872-80.595,2.821-120.893c0.161-6.841,0.322-13.676,0.483-20.518c0.029-1.652,0.074-3.296,0.103-4.948
		c0.058-2.368,9.4-5.753,11.651-7.288C512.803,237.752,522.232,189.874,499.244,159.986z M458.157,133.796
		c0.453,0.146,0.892,0.307,1.359,0.445C457.674,133.707,457.222,133.561,458.157,133.796z M483.521,217.592
		c-0.468,1.097-0.314,0.716-0.08,0.154c-4.152,9.568-13.355,15.883-23.31,19.034c-10.424,3.275-14.853,10.102-15.087,20.57
		c-0.103,4.379-0.204,8.749-0.307,13.12c-0.585,24.626-1.155,49.26-1.74,73.9c-0.497,21.329-0.994,42.658-1.492,63.988
		c-0.117,4.898-0.526,3.999-5.716,5.051c-11.71,2.397-23.405,4.795-35.101,7.178c-45.275,9.246-90.54,18.501-135.786,27.739
		c0.98-42.212,1.974-84.432,2.968-126.653c0.204-9.042,5.847-45.823-11.096-43.14c-9.385,1.381-20.95,0.007-25.232-9.43
		c-4.532-9.985-0.424-21.541,4.78-30.459c10.906-18.706,29.532-32.864,48.433-43.47c37.093-20.811,82.471-32.484,125.334-32.141
		c16.286,0.139,33.127,2.23,48.068,8.874c17.923,7.96,33.668,25.488,25.43,45.494C483.872,216.723,484.128,216.131,483.521,217.592z
		" style="fill: rgb(67, 40, 24);"></path>
</g>
</svg>
