<?xml version="1.0" encoding="utf-8"?>
<!-- Generator: Adobe Illustrator 24.0.1, SVG Export Plug-In . SVG Version: 6.00 Build 0)  -->
<svg version="1.1" id="_x32_" xmlns="http://www.w3.org/2000/svg" xmlns:xlink="http://www.w3.org/1999/xlink" x="0px" y="0px"
	 viewBox="0 0 406.3 519.1" style="enable-background:new 0 0 406.3 519.1;" xml:space="preserve">
<style type="text/css">
	.st0{fill:#c7ced2;}
</style>
<polygon class="st0" points="75.3,259.2 88.1,424.8 16.4,513.5 0,374.4 "/>
<polygon class="st0" points="334.5,263.2 316.7,428.3 385.7,519.1 406.3,380.7 "/>
<path class="st0" d="M294,80.5C271,30.7,233.9,0.4,208.9,0c-25-0.4-63,28.8-87.5,77.9L294,80.5z"/>
<path class="st0" d="M303.2,103.9L111.4,101c-8.8,24.3-14.3,52.1-14,82.8c0.7,87.9,19.2,243.5,19.2,243.5l156.1,2.4l15.3,0.2
	c0,0,23.3-154.9,26.7-242.8C315.9,156.4,311.3,128.4,303.2,103.9z M204.4,294.1c-30-0.5-53.9-25.1-53.5-55.2
	c0.5-30,25.2-54,55.2-53.5c30,0.5,54,25.2,53.5,55.2C259.1,270.6,234.4,294.6,204.4,294.1z"/>
</svg>
